<svg width="22" height="12" viewBox="0 0 22 12" fill="none" xmlns="http://www.w3.org/2000/svg">
<path d="M13.7012 0L15.6636 0.51068L14.8638 3.40815C16.061 3.83648 17.1737 4.4607 18.1535 5.2537L20.3415 3.13013L21.7795 4.52514L19.5904 6.64772C20.8261 8.08338 21.6564 9.80569 22 11.6461L20 12C19.2287 7.85738 15.4929 4.71443 11 4.71443C6.50813 4.71443 2.77134 7.85738 2 12L-1.90735e-06 11.6471C0.343121 9.80642 1.17305 8.08376 2.40854 6.64772L0.220526 4.52514L1.65854 3.13013L3.84654 5.2537C4.82634 4.4607 5.93899 3.83648 7.13618 3.40815L6.33638 0.509695L8.29878 0L9.09959 2.89845C10.3574 2.68937 11.6426 2.68937 12.9004 2.89845L13.7012 0Z" fill="#1F1E25"/>
</svg>
