<svg width="16" height="16" fill="1f1e25" id="instagram-image" xmlns="http://www.w3.org/2000/svg"><path d="M8 .202c2.174 0 2.445.008 3.298.046.852.039 1.432.168 1.942.36.528.197.973.463 1.418.892.406.387.721.855.922 1.371.198.493.332 1.055.372 1.879.038.824.048 1.087.048 3.189 0 2.102-.008 2.364-.048 3.19-.04.823-.174 1.384-.372 1.878-.2.516-.515.984-.922 1.37-.4.394-.884.698-1.418.893-.51.19-1.09.32-1.942.36-.853.036-1.124.046-3.298.046s-2.445-.008-3.298-.046c-.852-.04-1.432-.17-1.942-.36a3.927 3.927 0 01-1.418-.892 3.784 3.784 0 01-.922-1.371c-.198-.493-.332-1.055-.372-1.879C.01 10.303 0 10.041 0 7.938c0-2.1.008-2.363.048-3.188.04-.825.174-1.385.372-1.879.2-.517.515-.985.922-1.37.4-.395.884-.699 1.418-.893.51-.192 1.09-.321 1.942-.36C5.555.212 5.826.202 8 .202zM8 4.07a4.07 4.07 0 00-2.828 1.133A3.805 3.805 0 004 7.94a3.8 3.8 0 001.172 2.735A4.07 4.07 0 008 11.807a4.07 4.07 0 002.828-1.133A3.805 3.805 0 0012 7.94c0-1.026-.421-2.01-1.172-2.736A4.07 4.07 0 008 4.07zm5.2-.193a.951.951 0 00-.293-.684 1.017 1.017 0 00-.707-.283c-.265 0-.52.102-.707.283a.951.951 0 00-.293.684c0 .256.105.502.293.684.187.181.442.283.707.283.265 0 .52-.102.707-.283a.951.951 0 00.293-.684zM8 5.617c.637 0 1.247.245 1.697.68.45.436.703 1.026.703 1.642 0 .616-.253 1.206-.703 1.641-.45.435-1.06.68-1.697.68a2.442 2.442 0 01-1.697-.68A2.283 2.283 0 015.6 7.94c0-.616.253-1.206.703-1.641.45-.436 1.06-.68 1.697-.68z" fill="#1F1E25"/></svg>
