<svg width="113" height="16" viewBox="0 0 114 18" fill="none" id="liga-logo-footer" xmlns="http://www.w3.org/2000/svg"><path d="M35.48 17.718h-2.416V8.31h-2.8l-.208 1.6a56.904 56.904 0 01-.224 1.76 53.175 53.175 0 01-.24 1.68c-.085.523-.17.987-.256 1.392-.139.662-.325 1.227-.56 1.696-.224.47-.539.827-.944 1.072-.395.246-.912.368-1.552.368-.416 0-.8-.058-1.152-.176v-1.984c.139.043.272.08.4.112.139.032.288.048.448.048.31 0 .544-.16.704-.48.17-.33.341-.944.512-1.84.064-.341.155-.874.272-1.6.117-.725.245-1.573.384-2.544.15-.981.288-2.021.416-3.12h7.216v11.424zm2.882-11.424h2.176v5.52c0 .267-.005.566-.016.896l-.032.976c-.01.31-.022.582-.032.816-.01.224-.021.379-.032.464h.048l5.28-8.672h2.896v11.424h-2.16V12.23c0-.288.005-.602.016-.944.01-.352.021-.688.032-1.008.021-.32.037-.597.048-.832.021-.245.037-.405.048-.48h-.064l-5.296 8.752h-2.912V6.294zm20.388 0v2h-4.8v9.424h-2.416V6.294h7.216zm7.62 11.424l-.833-2.72h-4.16l-.832 2.72h-2.608L61.97 6.246h2.96l4.049 11.472H66.37zm-2.24-7.408a60.02 60.02 0 00-.208-.688 84.81 84.81 0 01-.256-.848 18.442 18.442 0 01-.208-.752c-.054.214-.128.48-.224.8-.086.31-.171.608-.257.896a8.184 8.184 0 01-.175.592l-.816 2.656h2.976l-.833-2.656zm10.873 7.408V6.294h7.216v2h-4.8v2.384h.96c1.077 0 1.957.15 2.64.448.693.299 1.205.71 1.535 1.232.331.523.496 1.12.496 1.792 0 1.131-.378 2.011-1.135 2.64-.747.619-1.942.928-3.585.928h-3.328zm3.231-1.984c.737 0 1.313-.117 1.729-.352.426-.234.64-.645.64-1.232 0-.608-.23-1.008-.688-1.2-.46-.192-1.083-.288-1.873-.288h-.624v3.072h.816zm10.364-6.928c1.173 0 2.069.256 2.688.768.629.502.944 1.275.944 2.32v5.824h-1.664l-.464-1.184h-.064c-.374.47-.768.811-1.184 1.024-.416.214-.987.32-1.712.32-.779 0-1.424-.224-1.936-.672-.512-.458-.768-1.157-.768-2.096 0-.928.325-1.61.976-2.048.65-.448 1.626-.693 2.928-.736l1.52-.048v-.384c0-.458-.123-.794-.368-1.008-.235-.213-.566-.32-.992-.32a4.12 4.12 0 00-1.248.192 9.424 9.424 0 00-1.216.448l-.784-1.616a6.87 6.87 0 011.552-.576 7.63 7.63 0 011.792-.208zm.336 4.896c-.768.022-1.302.16-1.6.416-.299.256-.448.592-.448 1.008 0 .363.106.624.32.784.213.15.49.224.832.224.512 0 .944-.149 1.296-.448.352-.309.528-.741.528-1.296v-.72l-.928.032zm8.12-4.72v3.36h3.328v-3.36h2.384v8.736h-2.384v-3.6h-3.328v3.6H94.67V8.982h2.384zm13.938 0h2.624l-3.456 4.192 3.76 4.544h-2.704l-3.568-4.432v4.432h-2.384V8.982h2.384v4.24l3.344-4.24z" fill="#1F1E25"/><path d="M11.125.915H9.25L1 14.951h2.438l1.124-2.005L11.125.916z" fill="#2C36F2"/><path d="M2.125 17.357h15.75l-6.75-12.431L10 6.93l3.375 6.015L14.5 14.95H1l1.125 2.406z" fill="#2C36F2"/><path d="M14.5 14.95l-1.125-2.004H4.562L3.438 14.95H14.5z" fill="#2C36F2"/><path d="M17.875 17.357L19 14.95 11.125.915l-6.563 12.03h2.063L10 6.932l1.125-2.005 6.75 12.43z" fill="#2C36F2"/><path d="M10 6.93l-3.375 6.016h6.75L10 6.93z" fill="#2C36F2"/><path d="M17.875 17.357H2.125L1 14.95m16.875 2.406L19 14.95 11.125.915m6.75 16.442l-6.75-12.431L10 6.93M11.125.915H9.25L1 14.951M11.125.915l-6.563 12.03M1 14.952h2.438M10 6.93l-3.375 6.015M10 6.93l3.375 6.015m-6.75 0h6.75m-6.75 0H4.562m8.813 0L14.5 14.95H3.437m1.126-2.005L3.438 14.95" stroke="#F6F7FF"/></svg>
