<svg width="20" height="19" fill="none" xmlns="http://www.w3.org/2000/svg"><path d="M11.125 1H9.25L1 15.512h2.438l1.124-2.073L11.125 1z" fill="#2C36F2"/><path d="M2.125 18h15.75l-6.75-12.854L10 7.22l3.375 6.219 1.125 2.073H1L2.125 18z" fill="#2C36F2"/><path d="M14.5 15.512l-1.125-2.073H4.562l-1.125 2.073H14.5z" fill="#2C36F2"/><path d="M17.875 18L19 15.512 11.125 1 4.562 13.439h2.063L10 7.219l1.125-2.073L17.875 18z" fill="#2C36F2"/><path d="M10 7.22l-3.375 6.219h6.75L10 7.219z" fill="#2C36F2"/><path d="M17.875 18H2.125L1 15.512M17.875 18L19 15.512 11.125 1m6.75 17l-6.75-12.854L10 7.22M11.125 1H9.25L1 15.512M11.125 1L4.562 13.439M1 15.512h2.438M10 7.22l-3.375 6.219M10 7.219l3.375 6.22m-6.75 0h6.75m-6.75 0H4.562m8.813 0l1.125 2.073H3.437m1.126-2.073l-1.125 2.073" stroke="#F6F7FF"/></svg>